# xmcd
#
# Track frame offsets: 
#        150
#        12145
#        21900
#        32832
#        43102
#        53062
#        64560
#        78872
#        91175
#        99410
#        107857
#        119787
#        129447
#        139327
#        149245
#        159670
#        170927
#        183297
#        193609
#        204450
#        212870
#        223617
#        234442
#        245387
#        256242
#        265327
#        276052
#        284362
#        296680
#
# Disc length: 4094 seconds
#
# Revision: 0
# Processed by: cddbd v1.5.1PL0 Copyright (c) Steve Scherf et al.
# Submitted via: ExactAudioCopy v0.95a4
#
DISCID=bd0ffc1d
DTITLE=Various Artist - The 'D' Singles Volume 3 - Disc 3
DYEAR=1900
DGENRE=Country
TTITLE0=William Tell Taylor: Sweet Dreams Of You
TTITLE1=William Tell Taylor: Seeing Is Believing
TTITLE2=Danny Ross: The Things I Cannot Change
TTITLE3=Danny Ross: Jose
TTITLE4=Link Davis: Waltz Of The Jambalaya
TTITLE5=Link Davis: Big Coonie
TTITLE6=Ray Pressley: Ghost Of A Broken Heart
TTITLE7=Ray Pressley: Land Of Lincoln
TTITLE8=Ray Pressley: I'll Never Be The Same Again
TTITLE9=Dean and Gene Reece: Jail Break
TTITLE10=Dean and Gene Reece: Run Away
TTITLE11=Dean and Gene Reece: Deam House For Sale (take 2)
TTITLE12=Leon Payne: There's No Justice
TTITLE13=Leon Payne: With Half A Heart
TTITLE14=Leon Payne: And Then I Cried
TTITLE15=Eddie Jones: Poor Unlucky Me
TTITLE16=Eddie Jones: Mansion Of Gold
TTITLE17=Johnny Conoly: Faded Love Affair
TTITLE18=Johnny Conoly: Can't Love And Win
TTITLE19=Guy Goodwin: Ageing Hearts
TTITLE20=Guy Goodwin: Gotta Go Bowling
TTITLE21=Jimmie John: I'm No Good For You
TTITLE22=Jimmie John: What You've Learned To Become
TTITLE23=Bobby and Sadie and The Pine Mountain Boys: What's Wrong
TTITLE24=Bobby and Sadie and The Pine Mountain Boys: Thanks For The Hear
TTITLE24=taches
TTITLE25=Claude Gray: Leave Alone
TTITLE26=Claude Gray: My Party's Over
TTITLE27=Claude Gray: Nite Life (take 1)
TTITLE28=Claude Gray: Yearning (take 1)
EXTD=
EXTT0=
EXTT1=
EXTT2=
EXTT3=
EXTT4=
EXTT5=
EXTT6=
EXTT7=
EXTT8=
EXTT9=
EXTT10=
EXTT11=
EXTT12=
EXTT13=
EXTT14=
EXTT15=
EXTT16=
EXTT17=
EXTT18=
EXTT19=
EXTT20=
EXTT21=
EXTT22=
EXTT23=
EXTT24=
EXTT25=
EXTT26=
EXTT27=
EXTT28=
PLAYORDER=
